# xmcd
#
# Track frame offsets: 
#        150
#        24215
#        44117
#        70627
#        100421
#        137574
#        174905
#        203612
#        226911
#        227621
#        270151
#        291597
#
# Disc length: 4424 seconds
#
# Revision: 0
# Processed by: cddbd v1.5.2PL0 Copyright (c) Steve Scherf et al.
# Submitted via: ExactAudioCopy v1.3
#
DISCID=9c11460c
DTITLE=BB Factory - Let The Good Times Roll
DYEAR=2019
DGENRE=Blues Rock, Roots Rock
TTITLE0=Everyday I Have The Blues
TTITLE1=There Must Be A Better World Somewhere
TTITLE2=I Just Want To Make Love To You
TTITLE3=Happy Birthday Blues
TTITLE4=Rock Me Baby
TTITLE5=Hummingbird
TTITLE6=The Thrill Is Gone
TTITLE7=Let The Good Times Roll
TTITLE8=You Upset Me Baby
TTITLE9=How Blue Can You Get
TTITLE10=Riding With The King
TTITLE11=Got My Mojo Working
EXTD=
EXTT0=
EXTT1=
EXTT2=
EXTT3=
EXTT4=
EXTT5=
EXTT6=
EXTT7=
EXTT8=
EXTT9=
EXTT10=
EXTT11=
PLAYORDER=
